<?xml version="1.0" encoding="UTF-8"?><svg id="uuid-c13153d9-1098-4324-b6eb-28ea5ca3eda5" xmlns="http://www.w3.org/2000/svg" width="62" height="62" xmlns:xlink="http://www.w3.org/1999/xlink" viewBox="0 0 62 62"><defs><style>.uuid-2493c63a-f452-4dea-9784-af63b00a0d1d{fill:url(#uuid-ba33e51d-bdd4-40f7-8742-7d96b1013be4);}.uuid-2493c63a-f452-4dea-9784-af63b00a0d1d,.uuid-f43da7cc-0c8d-4151-99bf-6446f7563ca8,.uuid-4f67269f-b0ec-473c-9e89-7cec16c3342e,.uuid-232f3372-29a3-48ee-99f3-e97010f9db5e,.uuid-25600499-43cd-4934-b0ed-db1c8db94d4c,.uuid-bfcbc11a-3111-4352-8c34-2f008cacaf57{stroke-width:0px;}.uuid-f43da7cc-0c8d-4151-99bf-6446f7563ca8{opacity:.05;}.uuid-4f67269f-b0ec-473c-9e89-7cec16c3342e{fill:url(#uuid-4269040a-6bdf-43d7-923e-a05ddd45768e);}.uuid-232f3372-29a3-48ee-99f3-e97010f9db5e{fill:url(#uuid-94ec2ad9-1e0f-45fa-8398-2fb3b85ff922);opacity:.25;}.uuid-25600499-43cd-4934-b0ed-db1c8db94d4c{fill:url(#uuid-8d10d5c0-5d48-4fa7-bb14-3b1cdd800dbb);opacity:.15;}.uuid-bfcbc11a-3111-4352-8c34-2f008cacaf57{opacity:.07;}</style><linearGradient id="uuid-ba33e51d-bdd4-40f7-8742-7d96b1013be4" x1="12.1693" y1=".3616" x2="49.8309" y2="61.638" gradientUnits="userSpaceOnUse"><stop offset="0" stop-color="#464646"/><stop offset="1" stop-color="#212121"/></linearGradient><linearGradient id="uuid-94ec2ad9-1e0f-45fa-8398-2fb3b85ff922" x1="31" y1="60.8052" x2="31" y2="1.1945" gradientUnits="userSpaceOnUse"><stop offset=".5" stop-color="#212121"/><stop offset="1" stop-color="#fff" stop-opacity=".5"/></linearGradient><linearGradient id="uuid-4269040a-6bdf-43d7-923e-a05ddd45768e" x1="17.3179" y1="10.8895" x2="42.7649" y2="52.2925" gradientUnits="userSpaceOnUse"><stop offset="0" stop-color="#fff"/><stop offset=".242" stop-color="#f2f2f2"/><stop offset="1" stop-color="#ccc"/></linearGradient><linearGradient id="uuid-8d10d5c0-5d48-4fa7-bb14-3b1cdd800dbb" x1="31" y1="48.2054" x2="31" y2="13.7946" gradientUnits="userSpaceOnUse"><stop offset="0" stop-color="#000" stop-opacity=".5"/><stop offset=".5" stop-color="#000"/><stop offset="1" stop-color="#000"/></linearGradient></defs><path class="uuid-f43da7cc-0c8d-4151-99bf-6446f7563ca8" d="M15.6651,0h30.6698c8.6458,0,15.6651,7.0193,15.6651,15.6651v30.6715c0,8.6448-7.0185,15.6634-15.6634,15.6634H15.6634c-8.6448,0-15.6634-7.0185-15.6634-15.6634V15.6651C0,7.0193,7.0193,0,15.6651,0Z"/><path class="uuid-bfcbc11a-3111-4352-8c34-2f008cacaf57" d="M15.6651.5974h30.6698c8.3161,0,15.0677,6.7516,15.0677,15.0677v30.6715c0,8.3151-6.7508,15.0659-15.0659,15.0659H15.6634c-8.3151,0-15.0659-6.7508-15.0659-15.0659V15.6651C.5974,7.349,7.349.5974,15.6651.5974Z"/><path class="uuid-2493c63a-f452-4dea-9784-af63b00a0d1d" d="M1.1948,15.663v30.6733c0,8.3193,5.064,14.4689,14.4704,14.4685l30.6714.0004c9.4045-.0004,14.4685-6.1496,14.4685-14.4689V15.663c0-8.3195-5.064-14.4682-14.4685-14.4685H15.6652C6.2588,1.1945,1.1948,7.3435,1.1948,15.663Z"/><path class="uuid-232f3372-29a3-48ee-99f3-e97010f9db5e" d="M46.3366,1.1945H15.6653C6.2588,1.1945,1.1948,7.3435,1.1948,15.6631v30.6733c0,8.3193,5.064,14.4688,14.4704,14.4685l30.6714.0003c9.4045-.0003,14.4685-6.1496,14.4685-14.4688V15.6631c0-8.3196-5.064-14.4682-14.4685-14.4685ZM60.2078,46.3366c0,8.5563-5.3149,13.8711-13.8711,13.8711H15.6651c-8.5569,0-13.8729-5.3149-13.8729-13.8711V15.6634C1.7922,7.1071,7.1083,1.7922,15.6651,1.7922h30.6715c8.5563,0,13.8711,5.3149,13.8711,13.8711v30.6733Z"/><path class="uuid-f43da7cc-0c8d-4151-99bf-6446f7563ca8" d="M13.7949,49.2056c-2.9238,0-5.3018-2.3779-5.3018-5.3013l.0215-25.8096c0-2.9224,2.3691-5.3003,5.2803-5.3003h11.1191c1.417,0,2.7529.5547,3.7607,1.562l2.7393,2.7393h16.791c2.9238,0,5.3018,2.3784,5.3018,5.3018v21.5068c0,2.9233-2.3779,5.3013-5.3018,5.3013H13.7949ZM38.6025,42.9043v-2.3018h-2.3008v2.3018h2.3008ZM42.9043,38.6025v-2.3013h-2.3018v2.3013h2.3018ZM38.6025,34.3013v-2.3013h-2.3008v2.3013h2.3008ZM42.9043,30v-2.3013h-2.3018v2.3013h2.3018ZM38.6025,25.6987v-2.3013h-2.3008v2.3013h2.3008Z"/><path class="uuid-bfcbc11a-3111-4352-8c34-2f008cacaf57" d="M13.7949,48.7056c-2.6475,0-4.8018-2.1538-4.8018-4.8013l.0215-25.8091c0-2.647,2.1445-4.8008,4.7803-4.8008h11.1191c1.2842,0,2.4941.5029,3.4072,1.4155l2.8857,2.8857h16.998c2.6475,0,4.8018,2.1543,4.8018,4.8018v21.5068c0,2.6475-2.1543,4.8013-4.8018,4.8013H13.7949ZM39.1025,43.4043v-3.3018h-3.3008v3.3018h3.3008ZM43.4043,39.1025v-3.3013h-3.3018v3.3013h3.3018ZM39.1025,34.8013v-3.3013h-3.3008v3.3013h3.3008ZM43.4043,30.5v-3.3013h-3.3018v3.3013h3.3018ZM39.1025,26.1987v-3.3013h-3.3008v3.3013h3.3008Z"/><path class="uuid-4f67269f-b0ec-473c-9e89-7cec16c3342e" d="M48.2054,18.0959h-17.2054l-3.0325-3.0325c-.8173-.8173-1.9141-1.2689-3.054-1.2689h-11.119c-2.3657,0-4.2799,1.9356-4.2799,4.3014l-.0215,25.8082c0,2.3657,1.9356,4.3014,4.3014,4.3014h34.4109c2.3657,0,4.3014-1.9356,4.3014-4.3014v-21.5068c0-2.3657-1.9356-4.3014-4.3014-4.3014ZM43.9041,31h-4.3014v4.3014h4.3014v4.3014h-4.3014v4.3014h-4.3014v-4.3014h4.3014v-4.3014h-4.3014v-4.3014h4.3014v-4.3014h-4.3014v-4.3014h4.3014v4.3014h4.3014v4.3014Z"/><path class="uuid-25600499-43cd-4934-b0ed-db1c8db94d4c" d="M52.5068,22.3973v21.5068c0,2.3658-1.9356,4.3014-4.3013,4.3014h-12.0917c3.0653-2.0076,5.3958-4.9318,6.688-8.6027h1.1023v-4.3014h-.1132c.1017-.8673.1566-1.7624.1569-2.6866.0002-.5457-.0341-1.081-.0726-1.6147h.0289v-4.3014h-.7717c-.9659-3.355-2.7832-6.2949-5.2875-8.6027h10.3606c2.3657,0,4.3013,1.9356,4.3013,4.3014ZM9.4947,42.1304l-.0015,1.7736c0,2.3658,1.9356,4.3014,4.3013,4.3014h.9546c-2.357-1.6359-4.1377-3.777-5.2545-6.075ZM9.6013,17.2341c2.0883-1.498,4.498-2.6865,7.198-3.4396h-3.0048c-2.0708,0-3.7953,1.4832-4.1932,3.4396ZM22.6029,21.6664c6.4697.0649,11.4604,4.9447,11.4894,10.4603.0278,5.272-2.181,9.153-8.1414,10.1097-3.2502.5217-8.3361-1.3845-8.1098-6.2946.1168-2.532,2.0885-3.9614,4.3478-3.8583-2.2103,2.9625.7162,5.1336,2.7858,4.6915,2.5619-.5474,3.6055-2.8226,3.6055-4.5872,0-1.8613-1.754-4.8684-6.1076-4.7651-5.387.1278-8.7769,4.0031-8.8912,8.7939-.1439,6.0333,5.4994,9.9984,11.2914,10.0705,4.5542.0568,8.1038-1.5284,10.4284-4.2572v-2.4272h1.6039c.6388-1.2877,1.0781-2.7311,1.3089-4.3014h-2.9128v-4.3013h2.9988c-.1779-1.4849-.595-2.9339-1.2181-4.3014h-1.7808v-2.9713c-2.6031-3.3659-6.6999-5.7353-11.761-5.9103-6.0057-.2076-10.742,1.8769-14.0295,5.0223l-.0058,6.9747c2.5644-5.6094,8.2664-8.196,13.098-8.1476Z"/></svg>